<mxfile host="65bd71144e">
    <diagram id="5XYtnlyk0ktsR8Yop93O" name="Page-1">
        <mxGraphModel dx="1280" dy="746" grid="1" gridSize="10" guides="1" tooltips="1" connect="1" arrows="1" fold="1" page="1" pageScale="1" pageWidth="850" pageHeight="1100" math="0" shadow="0">
            <root>
                <mxCell id="0"/>
                <mxCell id="1" parent="0"/>
                <mxCell id="4" style="edgeStyle=none;html=1;exitX=0.5;exitY=1;exitDx=0;exitDy=0;entryX=0.5;entryY=0;entryDx=0;entryDy=0;entryPerimeter=0;rounded=0;" parent="1" source="2" target="3" edge="1">
                    <mxGeometry relative="1" as="geometry"/>
                </mxCell>
                <mxCell id="2" value="Evaluations Of You Page" style="shape=offPageConnector;whiteSpace=wrap;html=1;strokeWidth=1;fontFamily=Helvetica;fontSize=10;size=0.25;rounded=0;" parent="1" vertex="1">
                    <mxGeometry x="60" y="40" width="80" height="80" as="geometry"/>
                </mxCell>
                <mxCell id="6" style="edgeStyle=none;html=1;exitX=0.5;exitY=1;exitDx=0;exitDy=0;exitPerimeter=0;entryX=0.5;entryY=0;entryDx=0;entryDy=0;rounded=0;" edge="1" parent="1" source="3" target="5">
                    <mxGeometry relative="1" as="geometry"/>
                </mxCell>
                <mxCell id="3" value="Display Evaluations Of You Page" style="strokeWidth=1;html=1;shape=mxgraph.flowchart.display;whiteSpace=wrap;fontSize=10;rounded=0;fontFamily=Helvetica;" parent="1" vertex="1">
                    <mxGeometry x="40" y="160" width="120" height="80" as="geometry"/>
                </mxCell>
                <mxCell id="9" style="edgeStyle=none;html=1;exitX=0.5;exitY=1;exitDx=0;exitDy=0;entryX=0.5;entryY=0;entryDx=0;entryDy=0;rounded=0;" edge="1" parent="1" source="5" target="7">
                    <mxGeometry relative="1" as="geometry"/>
                </mxCell>
                <mxCell id="5" value="studentProfile&lt;br style=&quot;font-size: 10px;&quot;&gt;&lt;br style=&quot;font-size: 10px;&quot;&gt;studentEvaluations" style="shape=hexagon;perimeter=hexagonPerimeter2;whiteSpace=wrap;html=1;fixedSize=1;fontFamily=Helvetica;strokeWidth=1;fontSize=10;rounded=0;" vertex="1" parent="1">
                    <mxGeometry x="40" y="280" width="120" height="80" as="geometry"/>
                </mxCell>
                <mxCell id="12" style="edgeStyle=none;html=1;exitX=0.5;exitY=1;exitDx=0;exitDy=0;entryX=0.5;entryY=0;entryDx=0;entryDy=0;entryPerimeter=0;rounded=0;" edge="1" parent="1" source="7" target="10">
                    <mxGeometry relative="1" as="geometry"/>
                </mxCell>
                <mxCell id="7" value="Get studentProfile and&lt;br style=&quot;font-size: 10px;&quot;&gt;its studentEvaluations" style="rounded=0;whiteSpace=wrap;html=1;fontFamily=Helvetica;strokeWidth=1;fontSize=10;" vertex="1" parent="1">
                    <mxGeometry x="40" y="400" width="120" height="40" as="geometry"/>
                </mxCell>
                <mxCell id="13" style="edgeStyle=none;html=1;exitX=0.5;exitY=1;exitDx=0;exitDy=0;exitPerimeter=0;entryX=0.5;entryY=0;entryDx=0;entryDy=0;entryPerimeter=0;rounded=0;" edge="1" parent="1" source="10" target="11">
                    <mxGeometry relative="1" as="geometry"/>
                </mxCell>
                <mxCell id="10" value="Students" style="shape=cylinder3;whiteSpace=wrap;html=1;boundedLbl=1;backgroundOutline=1;size=15;fontSize=10;rounded=0;fontFamily=Helvetica;" vertex="1" parent="1">
                    <mxGeometry x="40" y="480" width="120" height="80" as="geometry"/>
                </mxCell>
                <mxCell id="15" style="edgeStyle=none;html=1;exitX=0.5;exitY=1;exitDx=0;exitDy=0;exitPerimeter=0;entryX=0.5;entryY=0;entryDx=0;entryDy=0;rounded=0;" edge="1" parent="1" source="11" target="14">
                    <mxGeometry relative="1" as="geometry"/>
                </mxCell>
                <mxCell id="11" value="Display studentProfile" style="strokeWidth=1;html=1;shape=mxgraph.flowchart.display;whiteSpace=wrap;fontSize=10;rounded=0;fontFamily=Helvetica;" vertex="1" parent="1">
                    <mxGeometry x="40" y="600" width="120" height="80" as="geometry"/>
                </mxCell>
                <mxCell id="28" style="edgeStyle=none;html=1;exitX=0.5;exitY=1;exitDx=0;exitDy=0;entryX=0.5;entryY=0;entryDx=0;entryDy=0;rounded=0;" edge="1" parent="1" source="14" target="22">
                    <mxGeometry relative="1" as="geometry"/>
                </mxCell>
                <mxCell id="14" value="Check studentEvaluations" style="rounded=0;whiteSpace=wrap;html=1;fontFamily=Helvetica;strokeWidth=1;fontSize=10;" vertex="1" parent="1">
                    <mxGeometry x="40" y="720" width="120" height="40" as="geometry"/>
                </mxCell>
                <mxCell id="18" style="edgeStyle=none;html=1;exitX=1;exitY=0.5;exitDx=0;exitDy=0;entryX=0;entryY=0.5;entryDx=0;entryDy=0;fontSize=10;entryPerimeter=0;rounded=0;fontFamily=Helvetica;" edge="1" parent="1" source="22" target="26">
                    <mxGeometry relative="1" as="geometry">
                        <mxPoint x="330" y="840" as="targetPoint"/>
                    </mxGeometry>
                </mxCell>
                <mxCell id="19" value="No" style="edgeLabel;html=1;align=center;verticalAlign=middle;resizable=0;points=[];fontSize=10;rounded=0;fontFamily=Helvetica;" vertex="1" connectable="0" parent="18">
                    <mxGeometry x="-0.637" relative="1" as="geometry">
                        <mxPoint x="6" as="offset"/>
                    </mxGeometry>
                </mxCell>
                <mxCell id="20" style="edgeStyle=none;html=1;exitX=0.5;exitY=1;exitDx=0;exitDy=0;entryX=0.5;entryY=0;entryDx=0;entryDy=0;fontSize=10;entryPerimeter=0;rounded=0;fontFamily=Helvetica;" edge="1" parent="1" source="22" target="24">
                    <mxGeometry relative="1" as="geometry">
                        <mxPoint x="100" y="960" as="targetPoint"/>
                    </mxGeometry>
                </mxCell>
                <mxCell id="21" value="Yes" style="edgeLabel;html=1;align=center;verticalAlign=middle;resizable=0;points=[];fontSize=10;rounded=0;fontFamily=Helvetica;" vertex="1" connectable="0" parent="20">
                    <mxGeometry x="-0.6417" relative="1" as="geometry">
                        <mxPoint y="6" as="offset"/>
                    </mxGeometry>
                </mxCell>
                <mxCell id="22" value="Is the&lt;br style=&quot;font-size: 10px;&quot;&gt;studentEvaluations&lt;br style=&quot;font-size: 10px;&quot;&gt;not empty?" style="rhombus;whiteSpace=wrap;html=1;fontFamily=Helvetica;strokeWidth=1;fontSize=10;rounded=0;" vertex="1" parent="1">
                    <mxGeometry x="40" y="800" width="120" height="80" as="geometry"/>
                </mxCell>
                <mxCell id="23" style="edgeStyle=none;html=1;exitX=1;exitY=0.5;exitDx=0;exitDy=0;fontSize=10;rounded=0;fontFamily=Helvetica;startArrow=none;" edge="1" parent="1" source="26">
                    <mxGeometry relative="1" as="geometry">
                        <mxPoint x="300" y="840" as="targetPoint"/>
                        <Array as="points"/>
                    </mxGeometry>
                </mxCell>
                <mxCell id="33" style="edgeStyle=none;html=1;exitX=1;exitY=0.5;exitDx=0;exitDy=0;exitPerimeter=0;rounded=0;" edge="1" parent="1" source="24">
                    <mxGeometry relative="1" as="geometry">
                        <mxPoint x="300" y="1000.0769230769231" as="targetPoint"/>
                    </mxGeometry>
                </mxCell>
                <mxCell id="24" value="Display studentEvaluations" style="strokeWidth=1;html=1;shape=mxgraph.flowchart.display;whiteSpace=wrap;fontSize=10;rounded=0;fontFamily=Helvetica;" vertex="1" parent="1">
                    <mxGeometry x="40" y="960" width="120" height="80" as="geometry"/>
                </mxCell>
                <mxCell id="32" style="edgeStyle=none;html=1;exitX=0.5;exitY=1;exitDx=0;exitDy=0;exitPerimeter=0;entryX=0;entryY=0.5;entryDx=0;entryDy=0;rounded=0;" edge="1" parent="1" source="26" target="29">
                    <mxGeometry relative="1" as="geometry">
                        <Array as="points">
                            <mxPoint x="300" y="1000"/>
                        </Array>
                    </mxGeometry>
                </mxCell>
                <mxCell id="26" value="Display Empty" style="strokeWidth=1;html=1;shape=mxgraph.flowchart.display;whiteSpace=wrap;fontSize=10;rounded=0;fontFamily=Helvetica;" vertex="1" parent="1">
                    <mxGeometry x="240" y="800" width="120" height="80" as="geometry"/>
                </mxCell>
                <mxCell id="29" value="Dashboard Buttons" style="shape=offPageConnector;whiteSpace=wrap;html=1;strokeWidth=1;fontFamily=Helvetica;fontSize=10;size=0.25;rounded=0;" vertex="1" parent="1">
                    <mxGeometry x="460" y="960" width="80" height="80" as="geometry"/>
                </mxCell>
            </root>
        </mxGraphModel>
    </diagram>
</mxfile>